<?xml version="1.0" standalone="no"?>
<!DOCTYPE svg PUBLIC "-//W3C//DTD SVG 20010904//EN"
 "http://www.w3.org/TR/2001/REC-SVG-20010904/DTD/svg10.dtd">
<svg version="1.0" xmlns="http://www.w3.org/2000/svg"
 width="128.000000pt" height="128.000000pt" viewBox="0 0 128.000000 128.000000"
 preserveAspectRatio="xMidYMid meet">
<metadata>
Created by potrace 1.11, written by Peter Selinger 2001-2013
</metadata>
<g transform="translate(0.000000,128.000000) scale(0.100000,-0.100000)"
fill="#000000" stroke="none">
<path d="M84 1241 c-11 -11 -3 -101 9 -102 6 0 100 -1 207 -2 l194 -2 32 -65
c19 -37 30 -74 27 -85 -6 -22 -209 -559 -223 -590 -15 -31 -69 -172 -94 -245
l-23 -66 59 1 c56 0 60 2 73 30 7 17 72 187 143 379 l130 349 21 -48 c11 -26
21 -49 21 -52 0 -2 9 -23 19 -46 10 -23 49 -114 86 -202 117 -281 167 -400
171 -404 3 -3 282 -4 337 -1 4 0 7 23 7 50 l0 50 -128 0 -128 0 -207 478
c-113 262 -215 498 -226 525 -11 26 -26 47 -33 48 -50 3 -471 3 -474 0z"/>
</g>
</svg>
